<svg height="107.042" image-rendering="optimizeQuality" shape-rendering="geometricPrecision" text-rendering="geometricPrecision" viewBox="0 0 850.394 107.042" width="850.394" xmlns="http://www.w3.org/2000/svg"><radialGradient id="a" cx="52.197" cy="12.146" gradientUnits="userSpaceOnUse" r="90.85"><stop offset="0" stop-color="#e6ad28"/><stop offset=".134" stop-color="#e4a628"/><stop offset=".329" stop-color="#df9328"/><stop offset=".561" stop-color="#d87328"/><stop offset=".821" stop-color="#cd4728"/><stop offset="1" stop-color="#c42428"/></radialGradient><path d="M156.74 1.743l-.011 46.791 33.068-46.791h20.395l-.011 66.371h-15.932l.011-47.26-33.347 47.249h-20.116v-66.36zm84.779 24.69h31.786v-24.679h16.567v66.371h-16.567v-28.082h-31.786v28.081l-16.579-.011.011-66.371h16.567v24.691zm117.134-24.679l-.011 13.623h-22.682v52.748h-16.579l.011-52.748h-22.67v-13.623zm65.556.011v13.623h-42.149v11.056l37.509.011v13.622l-37.531-.011v14.447h42.172v13.623l-58.739-.012v-66.37zm28.874 31.908h15.205c10.287 0 15.117-1.729 15.117-9.048 0-7.598-4.184-9.237-14.033-9.237h-16.301v18.286h.012zm-16.568-31.919l39.16.022c15.475 0 24.322 8.591 24.322 22.57-.012 14.091-8.838 22.949-24.322 22.949h-22.582l-.01 20.841h-16.557v-66.382zm117.279 33.213c0 13.254 8.199 21.298 21.398 21.298 13.209 0 21.309-8.043 21.309-21.298 0-13.343-8.088-21.309-21.309-21.309-13.199 0-21.398 8.044-21.398 21.298zm60.926 0c0 21.03-15.207 34.921-39.516 34.921-24.322 0-39.619-13.912-39.619-34.932 0-21.03 15.297-34.931 39.629-34.92 24.299 0 39.518 13.901 39.506 34.92zm27.781-7.675l27.869-25.493 21.297.011-29.141 25.761 32.689 40.599h-20.305l-24.031-30.458-8.389 7.508v22.938h-16.58l.012-66.371 16.58.011v25.494zm76.668-.804h31.785v-24.678h16.578l-.01 66.359h-16.58v-28.047l-31.773-.011v28.059h-16.568v-66.36h16.58zm100.811 14.18l-8.824-20.483-8.658 20.472zm-15.563-38.869h15.854l30.123 66.371h-18.387l-6.002-14.08h-29.164l-5.902 14.08h-17.861l31.328-66.371h.011z" fill="#201f1f"/><path d="M148.841 106.995c-2.164 0-3.871-.257-5.121-.77s-2.153-1.306-2.689-2.365-.814-2.433-.814-4.116h6.27c0 .635.29 1.204.881 1.695.591.49 1.305.736 2.142.736h10.253c1.361 0 2.365-.223 3.012-.67.647-.445.971-1.182.971-2.197 0-.67-.111-1.205-.323-1.629s-.636-.748-1.25-.971-1.484-.346-2.588-.346h-11.246v-4.462h11.949c1.963 0 2.957-.993 2.957-2.99 0-1.773-.982-2.655-2.957-2.655h-10.287c-1.216 0-2.019.179-2.421.547-.401.368-.636.981-.714 1.841h-6.125c0-1.662.301-3.023.904-4.084.602-1.059 1.54-1.852 2.833-2.365 1.283-.513 2.957-.77 5.009-.77h10.398c2.276 0 4.095.246 5.456.726 1.361.479 2.365 1.249 2.99 2.298s.971 2.455 1.026 4.207c-.067 1.539-.379 2.722-.937 3.525-.558.814-1.395 1.439-2.499 1.896 1.261.457 2.231 1.082 2.9 1.896.669.803 1.004 1.896 1.004 3.269 0 1.808-.301 3.292-.893 4.44-.603 1.149-1.528 1.986-2.789 2.533-1.261.535-2.912.814-4.942.814h-12.362v-.033zm36.137-11.28h10.219l-4.875-9.517h-.29zm-5.791 11.28h-7.151l13.566-25.593h9.07l13.455 25.593h-7.196l-3.291-6.448h-15.151l-3.325 6.448zm37.208-10.7v5.857h12.272c1.082 0 1.885-.089 2.421-.268.524-.179.87-.479 1.049-.893.178-.413.256-1.026.256-1.819 0-.736-.078-1.293-.223-1.684-.156-.391-.479-.692-.971-.893-.502-.201-1.261-.302-2.309-.302h-12.495zm0-10.063v5.523h12.496c.803 0 1.439-.279 1.896-.826s.691-1.271.691-2.153c0-.792-.223-1.417-.68-1.863-.458-.457-1.104-.681-1.93-.681h-12.462zm-6.125 20.763v-25.593h18.43c1.941 0 3.559.211 4.853.625 1.306.424 2.287 1.104 2.957 2.053.669.947 1.004 2.186 1.004 3.736 0 1.931-.246 3.258-.725 4.006-.48.748-1.306 1.305-2.443 1.674 1.439.479 2.499 1.127 3.168 1.952.669.814 1.004 2.164 1.004 4.017 0 1.807-.313 3.269-.926 4.385-.614 1.104-1.551 1.907-2.812 2.398-1.261.49-2.867.747-4.82.747zm38.602-9.372c.011 1.127.156 1.998.446 2.611.279.613.758 1.049 1.439 1.294.669.245 1.651.38 2.923.38h8.111c1.339 0 2.343-.123 3.012-.357s1.138-.658 1.395-1.261.391-1.495.391-2.688v-6.527c0-1.249-.156-2.209-.458-2.855-.313-.647-.803-1.094-1.495-1.35-.681-.246-1.662-.38-2.934-.38h-7.899c-1.294 0-2.287.134-2.979.391-.68.257-1.171.714-1.461 1.36-.279.648-.446 1.596-.469 2.857v6.525zm23.819.625c0 1.651-.145 3.023-.446 4.117-.301 1.082-.803 1.975-1.495 2.655-.691.681-1.64 1.183-2.833 1.495-1.194.323-2.689.479-4.474.479h-11.246c-1.718 0-3.168-.167-4.362-.491-1.194-.334-2.165-.848-2.923-1.551-.747-.702-1.294-1.605-1.64-2.699s-.513-2.422-.513-3.994v-7.776c0-1.774.167-3.247.502-4.396.334-1.16.87-2.075 1.606-2.768.736-.691 1.685-1.182 2.867-1.473 1.171-.289 2.667-.445 4.474-.445h11.246c2.209 0 3.983.268 5.311.791 1.328.525 2.321 1.451 2.968 2.768s.971 3.157.971 5.522v7.776zm51.99 8.747v-25.593h28.059v25.593h-6.125v-20.506h-15.809v20.506zm60.915-25.593v25.593h-6.125v-20.506h-14.381v11.212c0 6.192-2.421 9.294-7.263 9.294h-2.577v-5.087c1.06 0 1.841-.146 2.365-.447s.881-.78 1.071-1.461c.189-.681.279-1.685.279-2.99v-15.597h26.631zm15.084 14.313h10.219l-4.875-9.517h-.29l-5.065 9.517zm-5.79 11.28h-7.151l13.566-25.593h9.082l13.455 25.593h-7.196l-3.291-6.448h-15.151l-3.325 6.448zm51.365-.034h-11.402c-2.387 0-4.25-.278-5.59-.837-1.338-.558-2.299-1.484-2.879-2.789-.568-1.305-.858-3.113-.858-5.422v-7.263c.033-2.498.346-4.406.948-5.734.604-1.327 1.607-2.265 3.002-2.789 1.395-.535 3.379-.792 5.969-.792h10.063c2.188 0 4.006.245 5.434.736 1.439.491 2.543 1.372 3.336 2.667.791 1.282 1.182 3.078 1.182 5.377h-6.348c0-1.35-.357-2.299-1.07-2.855-.715-.559-1.908-.838-3.57-.838h-7.855c-1.449 0-2.52.102-3.189.291-.682.189-1.139.602-1.395 1.216-.258.613-.391 1.595-.391 2.956v6.349c0 1.271.166 2.242.49 2.911.336.67.838 1.127 1.539 1.373.693.245 1.664.357 2.912.357h7.855c1.227 0 2.164-.102 2.822-.291s1.139-.558 1.439-1.093c.301-.536.457-1.328.457-2.376h6.348c-.01 2.342-.268 4.149-.77 5.399-.502 1.249-1.406 2.142-2.711 2.666s-3.236.792-5.768.792zm12.305-25.559h27.625v5.087h-10.801v20.506h-6.125v-20.506h-10.699zm57.346 25.593v-20.506h-.848l-15.373 20.506h-10.51v-25.593h6.125v20.506h.836l15.607-20.506h10.287v25.593zm10.765 0v-25.593h6.092v9.55h3.604l11.18-9.55h9.182l-15.084 11.993 15.676 13.6h-9.004l-11.827-10.956h-3.727v10.956zm39.383-9.372c.012 1.127.156 1.998.447 2.611.279.613.758 1.049 1.439 1.294.68.245 1.65.38 2.922.38h8.111c1.34 0 2.344-.123 3.014-.357.668-.234 1.137-.658 1.395-1.261.256-.603.389-1.495.389-2.688v-6.527c0-1.249-.154-2.209-.467-2.855-.313-.647-.805-1.094-1.496-1.35-.68-.246-1.662-.38-2.934-.38h-7.898c-1.295 0-2.287.134-2.98.391-.691.257-1.17.714-1.461 1.36-.279.648-.445 1.596-.469 2.857v6.525zm23.821.625c0 1.651-.145 3.023-.445 4.117-.303 1.082-.805 1.975-1.496 2.655s-1.641 1.183-2.834 1.495c-1.193.323-2.688.479-4.473.479h-11.247c-1.719 0-3.17-.167-4.363-.491-1.193-.334-2.164-.848-2.912-1.551-.746-.702-1.293-1.605-1.639-2.699s-.514-2.422-.514-3.994v-7.776c0-1.774.168-3.247.502-4.396.334-1.16.871-2.075 1.607-2.768.736-.691 1.684-1.182 2.867-1.473 1.17-.289 2.666-.445 4.473-.445h11.246c2.209 0 3.982.268 5.311.791 1.328.525 2.32 1.451 2.969 2.768.646 1.316.969 3.157.969 5.522v7.776zm10.175-1.953v5.857h12.271c1.082 0 1.896-.089 2.422-.268.523-.179.869-.479 1.049-.893.178-.413.256-1.026.256-1.819 0-.736-.078-1.293-.234-1.684s-.48-.692-.971-.893c-.502-.201-1.26-.302-2.309-.302h-12.484zm0-10.063v5.523h12.494c.805 0 1.439-.279 1.896-.826.459-.547.691-1.271.691-2.153 0-.792-.223-1.417-.68-1.863-.457-.457-1.104-.681-1.93-.681h-12.461zm-6.125 20.763v-25.593h18.441c1.941 0 3.559.211 4.854.625 1.305.424 2.287 1.104 2.955 2.053.67.947 1.006 2.186 1.006 3.736 0 1.931-.246 3.258-.727 4.006-.479.748-1.305 1.305-2.443 1.674 1.439.479 2.5 1.127 3.17 1.952.668.814 1.004 2.164 1.004 4.017 0 1.807-.313 3.269-.928 4.385-.613 1.104-1.549 1.907-2.811 2.398-1.26.49-2.867.747-4.82.747h-19.691zm71.614-25.593h-6.125v25.593h6.125zm-32.6 20.494h10.221c1.359 0 2.365-.201 3.012-.592.646-.39.971-1.171.971-2.32 0-1.171-.336-1.963-1.016-2.354s-1.707-.592-3.113-.592h-10.074v5.858zm0-20.494v9.55h11.168c2.119 0 3.85.224 5.166.669 1.316.447 2.309 1.262 2.979 2.433s1.004 2.822 1.004 4.942c0 1.606-.178 2.923-.547 3.961-.367 1.037-.914 1.852-1.641 2.432-.725.58-1.639.993-2.754 1.238-1.105.246-2.467.368-4.051.368h-17.449v-25.593zm53.318 9.338l8.346-9.338h8.289l-11.793 12.428 13.232 13.165h-8.992l-9.082-10.108-9.07 10.108h-8.992l13.23-13.165-11.791-12.428h8.289zm39.16 6.883c.01 1.127.156 1.998.434 2.611.279.613.76 1.049 1.439 1.294.682.245 1.652.38 2.924.38h8.111c1.338 0 2.342-.123 3.012-.357s1.139-.658 1.395-1.261.391-1.495.391-2.688v-6.527c0-1.249-.156-2.209-.469-2.855-.313-.647-.803-1.094-1.494-1.35-.682-.246-1.664-.38-2.936-.38h-7.898c-1.295 0-2.287.134-2.979.391-.682.257-1.172.714-1.461 1.36-.279.648-.447 1.596-.469 2.857zm23.819.625c0 1.651-.145 3.023-.445 4.117-.303 1.082-.805 1.975-1.496 2.655s-1.639 1.183-2.834 1.495c-1.193.323-2.688.479-4.473.479h-11.246c-1.719 0-3.168-.167-4.363-.491-1.193-.334-2.164-.848-2.91-1.551-.748-.702-1.307-1.605-1.641-2.699-.346-1.094-.514-2.422-.514-3.994v-7.776c0-1.774.168-3.247.502-4.396.334-1.16.871-2.075 1.607-2.768.736-.691 1.684-1.182 2.867-1.473 1.17-.289 2.666-.445 4.473-.445h11.246c2.209 0 3.982.268 5.311.791 1.34.525 2.32 1.451 2.969 2.768.646 1.316.971 3.157.971 5.522v7.776zm4.096 8.747v-25.593h6.08v9.55h3.613l11.168-9.55h9.184l-15.074 11.993 15.676 13.6h-9.004l-11.836-10.956h-3.727v10.956zm39.371-9.372c.012 1.127.156 1.998.445 2.611.279.613.76 1.049 1.439 1.294.67.245 1.652.38 2.924.38h8.111c1.338 0 2.342-.123 3.012-.357s1.139-.658 1.395-1.261.391-1.495.391-2.688v-6.527c0-1.249-.156-2.209-.469-2.855-.313-.647-.803-1.094-1.494-1.35-.693-.246-1.674-.38-2.945-.38h-7.9c-1.293 0-2.287.134-2.979.391s-1.172.714-1.461 1.36c-.291.648-.447 1.596-.469 2.857zm23.82.625c0 1.651-.146 3.023-.447 4.117-.301 1.082-.803 1.975-1.494 2.655-.693.681-1.641 1.183-2.834 1.495-1.195.323-2.689.479-4.475.479h-11.246c-1.717 0-3.168-.167-4.361-.491-1.193-.334-2.164-.848-2.912-1.551-.748-.702-1.295-1.605-1.641-2.699s-.514-2.422-.514-3.994v-7.776c0-1.774.168-3.247.502-4.396.336-1.16.871-2.075 1.607-2.768.736-.691 1.686-1.182 2.867-1.473 1.172-.289 2.666-.445 4.475-.445h11.246c2.209 0 3.982.268 5.311.791 1.326.525 2.32 1.451 2.967 2.768s.971 3.157.971 5.522v7.776zm3.725 8.747v-25.593h6.125v9.807h15.787v-9.807h6.158v25.593h-6.158v-10.7h-15.787v10.699h-6.125zm-534.403-8.334c.334-1.104.491-2.365.491-3.771v-8.412h13.566v15.418h-15.675c.748-1.06 1.283-2.143 1.606-3.246zm-4.586 8.323h27.624v-5.088h-2.845v-20.506h-25.582v12.238c0 1.853-.234 3.426-.703 4.72-.468 1.294-1.25 2.478-2.365 3.548h-1.74v5.088z" fill="#c42428"/><circle cx="52.383" cy="12.155" fill="#e6ad28" r="12.155"/><g fill="url(#a)"><path d="M26.197 9.3c-15.655 9.057-26.197 25.972-26.197 45.36 0 19.389 10.541 36.303 26.197 45.36zM78.53 9.278v90.765c15.677-9.053 26.235-25.979 26.235-45.383 0-19.403-10.558-36.33-26.235-45.382zM52.382 37.122c-4.912 0-9.489-1.425-13.352-3.875v72.072c4.264 1.121 8.737 1.724 13.352 1.724 4.601 0 9.062-.598 13.314-1.713v-72.059c-3.854 2.436-8.417 3.851-13.314 3.851z"/></g></svg>